# Blender 4.1.0
# www.blender.org
mtllib TestObject.mtl
o Sphere.002
v 0.796755 0.807810 -0.300000
v 0.996755 0.807810 -0.300000
v 0.796755 0.807810 0.300000
v 0.996755 0.807810 0.300000
v 0.796755 -0.100956 -0.300000
v 0.996755 -0.100956 -0.300000
v 0.796755 -0.100956 0.300000
v 0.996755 -0.100956 0.300000
v 1.000000 0.100000 -0.300000
v 1.000000 -0.100000 -0.300000
v 1.000000 0.100000 0.300000
v 1.000000 -0.100000 0.300000
v -1.000000 0.100000 -0.300000
v -1.000000 -0.100000 -0.300000
v -1.000000 0.100000 0.300000
v -1.000000 -0.100000 0.300000
v -0.996755 0.807810 -0.300000
v -0.796755 0.807810 -0.300000
v -0.996755 0.807810 0.300000
v -0.796755 0.807810 0.300000
v -0.996755 -0.100956 -0.300000
v -0.796755 -0.100956 -0.300000
v -0.996755 -0.100956 0.300000
v -0.796755 -0.100956 0.300000
v 1.000000 0.806854 -0.300000
v 1.000000 0.606854 -0.300000
v 1.000000 0.806854 0.300000
v 1.000000 0.606854 0.300000
v -1.000000 0.806854 -0.300000
v -1.000000 0.806854 0.300000
v -1.000000 0.606854 -0.300000
v -1.000000 0.606854 0.300000
vn -0.0000 -0.0000 -1.0000
vn -0.0000 1.0000 -0.0000
vn -1.0000 -0.0000 -0.0000
vn -0.0000 -1.0000 -0.0000
vn -0.0000 -0.0000 1.0000
vn 1.0000 -0.0000 -0.0000
vt 0.625000 0.250000
vt 0.625000 0.500000
vt 0.375000 0.500000
vt 0.375000 0.750000
vt 0.625000 0.750000
vt 0.875000 0.500000
vt 0.375000 0.250000
vt 0.875000 0.750000
vt 0.625000 0.000000
vt 0.625000 1.000000
vt 0.375000 1.000000
vt 0.375000 0.000000
vt 0.125000 0.750000
vt 0.125000 0.500000
s 0
usemtl Material.001
f 13/1/1 9/2/1 10/3/1
f 9/2/6 12/4/6 10/3/6
f 9/2/6 11/5/6 12/4/6
f 13/6/2 11/5/2 9/2/2
f 13/1/1 10/3/1 14/7/1
f 13/6/2 15/8/2 11/5/2
f 15/9/3 13/1/3 14/7/3
f 11/5/5 15/10/5 16/11/5
f 15/9/3 14/7/3 16/12/3
f 10/3/4 12/4/4 16/13/4
f 10/3/4 16/13/4 14/14/4
f 11/5/5 16/11/5 12/4/5
usemtl Material.002
f 5/1/1 1/2/1 2/3/1
f 1/2/2 4/4/2 2/3/2
f 1/2/2 3/5/2 4/4/2
f 5/6/3 3/5/3 1/2/3
f 5/1/1 2/3/1 6/7/1
f 5/6/3 7/8/3 3/5/3
f 7/9/4 5/1/4 6/7/4
f 3/5/5 7/10/5 8/11/5
f 7/9/4 6/7/4 8/12/4
f 2/3/6 4/4/6 8/13/6
f 2/3/6 8/13/6 6/14/6
f 3/5/5 8/11/5 4/4/5
usemtl Material.003
f 21/1/1 17/2/1 18/3/1
f 17/2/2 20/4/2 18/3/2
f 17/2/2 19/5/2 20/4/2
f 21/6/3 19/5/3 17/2/3
f 21/1/1 18/3/1 22/7/1
f 21/6/3 23/8/3 19/5/3
f 23/9/4 21/1/4 22/7/4
f 19/5/5 23/10/5 24/11/5
f 23/9/4 22/7/4 24/12/4
f 18/3/6 20/4/6 24/13/6
f 18/3/6 24/13/6 22/14/6
f 19/5/5 24/11/5 20/4/5
usemtl Material.004
f 29/1/1 25/2/1 26/3/1
f 25/2/6 28/4/6 26/3/6
f 25/2/6 27/5/6 28/4/6
f 29/6/2 27/5/2 25/2/2
f 29/1/1 26/3/1 31/7/1
f 29/6/2 30/8/2 27/5/2
f 30/9/3 29/1/3 31/7/3
f 26/3/4 32/13/4 31/14/4
f 30/9/3 31/7/3 32/12/3
f 27/5/5 30/10/5 32/11/5
f 26/3/4 28/4/4 32/13/4
f 27/5/5 32/11/5 28/4/5
